<svg width="40" height="40" viewBox="0 0 40 40" fill="none" xmlns="http://www.w3.org/2000/svg">
<path d="M0 9L20 0L40 9V31L20 40L0 31V9Z" fill="black"/>
<g clip-path="url(#clip0_416_258)">
<path d="M30 25.6499L20.83 29.8099C20.5694 29.9288 20.2864 29.9903 20 29.9903C19.7136 29.9903 19.4306 29.9288 19.17 29.8099L10 25.6499M30 20.6499L20.83 24.8099C20.5694 24.9288 20.2864 24.9903 20 24.9903C19.7136 24.9903 19.4306 24.9288 19.17 24.8099L10 20.6499M20.83 10.1801C20.5694 10.0613 20.2864 9.99976 20 9.99976C19.7136 9.99976 19.4305 10.0613 19.17 10.1801L10.6 14.0801C10.4225 14.1584 10.2716 14.2865 10.1657 14.449C10.0598 14.6114 10.0034 14.8012 10.0034 14.9951C10.0034 15.189 10.0598 15.3788 10.1657 15.5413C10.2716 15.7037 10.4225 15.8319 10.6 15.9101L19.18 19.8201C19.4405 19.939 19.7236 20.0005 20.01 20.0005C20.2964 20.0005 20.5794 19.939 20.84 19.8201L29.42 15.9201C29.5974 15.8419 29.7483 15.7137 29.8542 15.5513C29.9601 15.3888 30.0165 15.199 30.0165 15.0051C30.0165 14.8112 29.9601 14.6214 29.8542 14.459C29.7483 14.2965 29.5974 14.1684 29.42 14.0901L20.83 10.1801Z" stroke="white" stroke-width="2.5" stroke-linecap="round" stroke-linejoin="round"/>
</g>
<defs>
<clipPath id="clip0_416_258">
<rect width="24" height="24" fill="white" transform="translate(8 8)"/>
</clipPath>
</defs>
</svg>
